<svg width="158" height="51" viewBox="0 0 158 51" fill="none" xmlns="http://www.w3.org/2000/svg">
<g id="Logo" clip-path="url(#clip0_31_669)">
<path id="Vector" d="M13.897 43.2147C13.9867 43.0846 14.0759 42.9524 14.1644 42.818C14.191 42.7763 14.2185 42.7347 14.246 42.6931L2.82684 36.6454L2.53555 36.5131V13.9108L2.4641 13.8562L0 11.991V37.7828L13.2429 44.1098C13.4655 43.8213 13.6844 43.5217 13.897 43.2147Z" fill="#80ED99"/>
<path id="Vector_2" d="M34.5771 46.3033C33.5381 46.3098 32.5071 46.1194 31.5377 45.742C30.4111 45.2965 29.4095 44.5797 28.6202 43.6539H28.6101L28.6019 43.628C28.2529 43.2219 27.9391 42.7863 27.6639 42.326C27.5842 42.1965 27.5082 42.0624 27.434 41.9265C27.2562 41.6019 27.0886 41.2607 26.9329 40.9001C26.8715 40.7604 26.812 40.618 26.7561 40.4728C26.2914 39.2692 25.9486 38.0213 25.7329 36.748C25.4315 35.0604 25.1228 32.2667 25.3601 28.5419C25.6724 23.6122 27.4037 18.8646 30.5035 14.4258C31.3512 13.217 32.2733 12.0631 33.2644 10.971L22.514 19.5119L8.84421 9.87061C11.2008 12.2454 13.1961 14.9594 14.7654 17.9241H14.77C15.6231 19.5446 16.3282 21.2402 16.8768 22.9898C17.2836 24.2875 17.5935 25.6142 17.8038 26.9588C17.8368 27.1687 17.8679 27.3795 17.8954 27.5894C18.0645 28.8655 18.1352 30.1529 18.107 31.44C18.1079 31.4563 18.1079 31.4727 18.107 31.489C18.107 31.5917 18.0997 31.6943 18.0969 31.797L18.086 32.0319C18.0814 32.1336 18.0759 32.2344 18.0695 32.3361C17.9721 33.99 17.6932 35.6279 17.2377 37.2196C17.1928 37.374 17.1461 37.5275 17.0985 37.682C16.9067 38.2985 16.6884 38.9036 16.4435 39.4972C16.1168 40.2866 15.7424 41.055 15.3223 41.798C15.2463 41.933 15.1693 42.0652 15.0915 42.1984C14.6564 42.9273 14.1805 43.6306 13.6662 44.3049C13.5629 44.4405 13.4567 44.5762 13.3474 44.7118C12.8 45.394 12.2153 46.0448 11.5959 46.6611C11.5126 46.7444 11.4265 46.8276 11.3404 46.9117C11.0961 47.1509 10.8418 47.3871 10.5773 47.6201C9.1199 48.9112 7.53051 50.042 5.836 50.9935C8.68018 50.7225 11.4772 50.0781 14.1562 49.0765C16.9329 48.0381 19.558 46.6262 21.9607 44.8792L22.0816 45.0503C25.9289 49.6027 31.0587 51.2025 36.1719 49.44C40.676 47.8864 42.8011 44.5037 43.6485 42.6894C42.137 43.8509 38.4729 46.3023 34.5771 46.3033Z" fill="#22577A"/>
<path id="Vector_3" d="M43.6091 11.991V37.7828L29.9603 44.3059C29.6911 44.0913 29.4371 43.858 29.2 43.6077L29.0929 43.4912C29.0535 43.4496 29.015 43.4061 28.9775 43.3617L28.8858 43.2535C28.8465 43.2091 28.808 43.161 28.7704 43.1157C28.6633 42.9835 28.5588 42.8448 28.4581 42.7024L40.8317 36.1978H40.8363L41.145 36.0535V13.8599L41.7083 13.4327L42.1663 13.0887L43.6091 11.991Z" fill="#80ED99"/>
<path id="Vector_4" d="M40.6888 9.96494V35.7567L40.6247 35.7863L32.2083 40.2111L28.1988 42.3186C28.1585 42.2576 28.1201 42.1956 28.0825 42.1337C28.0449 42.0717 28.0147 42.0255 27.9836 41.97C27.9378 41.8923 27.892 41.8137 27.8498 41.7351C27.7463 41.5455 27.6437 41.3504 27.5466 41.1479C27.4807 41.0101 27.4166 40.8705 27.3533 40.7234C27.3433 40.7003 27.3332 40.6763 27.324 40.6532L28.0001 40.2213C28.0001 40.2213 28.0001 40.2213 28.0001 40.2269L37.9013 33.4153V12.0733L40.6888 9.96494Z" fill="#57CC99"/>
<path id="Vector_5" d="M37.4479 21.6859V33.1702L27.8114 39.7996L27.1482 40.2259C26.883 39.5354 26.6621 38.8284 26.4868 38.1092C26.4483 37.9529 26.4117 37.7948 26.375 37.6348C26.3604 37.5627 26.343 37.4896 26.3283 37.4175L26.2899 37.2326L34.4974 32.2112V26.1801L25.7338 30.9185C25.7338 30.1842 25.7613 29.4019 25.8154 28.5706C26.0162 25.5095 26.7593 22.5097 28.0092 19.7135V26.8765L36.9917 21.9347L37.4479 21.6859Z" fill="#38A3A5"/>
<path id="Vector_6" d="M9.11078 25.2915V31.9292L16.7779 37.1613C16.7522 37.2473 16.7275 37.3343 16.7 37.4203C16.5022 38.0639 16.2741 38.6995 16.0157 39.3271C15.8625 39.697 15.7016 40.0555 15.533 40.4025L6.28119 34.0903V8.10529C9.47444 10.8508 12.0521 13.9931 13.9355 17.3295L9.1062 13.871V21.2633L17.4044 27.2482L17.4374 27.472C17.4539 27.5941 17.4695 27.7152 17.4841 27.8373C17.4841 27.8558 17.4887 27.8752 17.4915 27.8937L17.5217 28.1646C17.5309 28.2571 17.5409 28.3496 17.551 28.442C17.5611 28.5345 17.5675 28.6103 17.5739 28.6954C17.5803 28.7805 17.5876 28.8628 17.595 28.946C17.595 29.0015 17.6032 29.0561 17.6078 29.1106V29.1541C17.6078 29.1689 17.6078 29.1827 17.6078 29.1975C17.6078 29.2123 17.6078 29.2086 17.6078 29.2142C17.6078 29.2197 17.6078 29.2244 17.6078 29.229C17.6078 29.2336 17.6078 29.266 17.6078 29.2835C17.6078 29.3011 17.6078 29.3076 17.6078 29.3196C17.6231 29.5662 17.6347 29.8103 17.6426 30.052C17.6426 30.1805 17.649 30.3072 17.6527 30.4358C17.6527 30.6891 17.6527 30.9422 17.6527 31.195L9.11078 25.2915Z" fill="#38A3A5"/>
<path id="Vector_7" d="M15.3268 40.8187C15.1885 41.0887 15.0456 41.3559 14.8981 41.6158L14.8826 41.6445C14.8111 41.7702 14.7397 41.8932 14.6664 42.0144C14.6606 42.0231 14.6557 42.0324 14.6517 42.0421C14.5995 42.1299 14.5464 42.2169 14.4924 42.3019L9.66125 39.7441L3.03292 36.2301L2.9917 36.2089V10.4254L5.82129 12.5671V12.937V34.3354L15.3268 40.8187Z" fill="#57CC99"/>
<path id="Vector_8" d="M37.4479 7.63922V14.2733L36.9899 14.5044L28.3665 18.9358C30.6757 14.1272 34.0724 10.5281 36.6473 8.27636C36.7627 8.17464 36.8763 8.0757 36.9899 7.98045L37.0146 7.9601L37.2894 7.76406L37.4415 7.64107L37.4479 7.63922Z" fill="#38A3A5"/>
<path id="Vector_9" d="M15.4936 8.26157C15.5004 7.84309 15.5433 7.42599 15.6218 7.01503C15.7647 6.2697 16.0643 5.54471 16.3547 4.84468C16.4389 4.63847 16.525 4.42855 16.6093 4.21771L16.3345 4.04849L16.1687 3.94677L15.8985 3.77939C15.7922 4.03277 15.6796 4.28429 15.5678 4.5312C15.1849 5.37918 14.7892 6.2549 14.6747 7.19628C14.6206 7.64663 14.7214 8.08125 14.8634 8.50385L14.4612 8.65921L15.1812 10.5623L16.5415 10.038L15.8234 8.13766L15.4936 8.26157ZM16.1348 9.85489L15.3608 10.1536L14.867 8.84231L14.9696 8.80254C14.9925 8.8645 15.0164 8.92553 15.0393 8.98749C15.1462 9.25951 15.2379 9.53736 15.3141 9.81975L15.62 9.75317C15.5501 9.37251 15.509 8.987 15.4973 8.60003L15.642 8.54362" fill="#22577A"/>
<path id="Vector_10" d="M26.6562 8.57691L26.6122 8.5057H26.5289C25.3014 8.46964 24.0492 8.83953 22.7997 9.60244C23.1588 9.14007 23.746 8.77018 24.553 8.48166C24.6153 8.45947 24.6785 8.43727 24.7435 8.41693L24.8471 8.38456L24.9606 8.35035L25.1548 8.29671L25.1823 8.28931C25.2593 8.26897 25.3371 8.24955 25.4168 8.23106L25.4791 8.21626L25.6696 8.17372L25.7356 8.15985L25.9719 8.11269H25.9912C26.0928 8.0942 26.1973 8.0757 26.3035 8.05813L26.4354 8.03686V6.23918L30.8323 4.83358L23.0306 0L14.3046 2.79085L15.9012 3.77939L16.1714 3.94676L16.3372 4.04848L16.612 4.21771L18.5503 5.41987L18.6245 5.3875C18.8543 5.28736 19.0891 5.19939 19.328 5.12395C20.5298 4.74481 22.3445 4.61997 23.6599 4.89277L23.3787 4.90017L23.1762 4.90664L22.8254 4.92236L22.5634 4.939H22.5524L22.2923 4.95935H22.2703L22.0211 4.98339H21.9909C21.9112 4.99079 21.8306 5.00004 21.7509 5.00928L21.7133 5.01391L21.4825 5.0435C21.468 5.04655 21.4533 5.04871 21.4385 5.04997L21.2159 5.08419L21.1665 5.09251C21.096 5.10361 21.0245 5.11655 20.9531 5.13042L20.8981 5.1406L20.6938 5.18128L20.6334 5.19516L20.4382 5.23954L20.3723 5.25619L20.1891 5.30427L20.1158 5.32462L19.9454 5.37548C19.9179 5.38288 19.8905 5.39212 19.863 5.40045L19.7091 5.45223L19.6175 5.48552L19.4801 5.53638C19.4462 5.55025 19.4114 5.5632 19.3775 5.57799L19.2859 5.61498L19.1943 5.65475L19.1027 5.69636V7.39787C18.3078 8.07415 17.7379 8.98068 17.4702 9.99473C17.2025 11.0088 17.25 12.0814 17.6061 13.0673C17.9622 14.0533 18.6099 14.9049 19.4613 15.507C20.3128 16.1091 21.3269 16.4325 22.3665 16.4334C22.524 16.4334 22.6825 16.426 22.8419 16.4113C24.1811 16.2842 25.4156 15.6258 26.2743 14.5807C27.1331 13.5356 27.5458 12.1891 27.422 10.837C27.3492 10.0327 27.0866 9.25771 26.6562 8.57691Z" fill="#22577A"/>
<path id="Vector_11" d="M58.498 32.1225C58.6511 32.1716 58.809 32.2042 58.9689 32.2196C59.1255 32.2344 59.2821 32.2418 59.4397 32.2418C59.823 32.243 60.2044 32.1879 60.5719 32.0781C60.932 31.9701 61.2757 31.8127 61.5933 31.6102C61.9124 31.4078 62.1999 31.1585 62.4461 30.8704C62.6962 30.5785 62.9018 30.2506 63.0562 29.8976L65.9975 32.8817C65.628 33.4126 65.1958 33.8961 64.7105 34.3215C64.2302 34.7439 63.7023 35.1076 63.1377 35.4053C62.5736 35.702 61.976 35.9287 61.3579 36.0803C60.7299 36.2346 60.0859 36.3119 59.4397 36.3106C58.3853 36.3171 57.3402 36.1119 56.3652 35.7067C55.3901 35.3016 54.5047 34.7046 53.7604 33.9507C53.0164 33.1902 52.4283 32.2889 52.03 31.2985C51.5991 30.2283 51.3836 29.0822 51.3961 27.927C51.3811 26.7464 51.5965 25.5743 52.03 24.4777C52.4136 23.4947 52.9914 22.6009 53.7283 21.8506C54.4652 21.1004 55.3456 20.5095 56.3161 20.1139C57.3076 19.7048 58.3695 19.498 59.4406 19.5054C60.0891 19.5047 60.7351 19.5846 61.3643 19.7431C62.6108 20.0545 63.7654 20.6626 64.7316 21.5167C65.2192 21.9447 65.6538 22.4306 66.0259 22.9639L58.498 32.1225ZM60.5573 23.7657C60.3801 23.6987 60.1955 23.6537 60.0076 23.6316C59.8196 23.6117 59.6306 23.6018 59.4415 23.602C58.9093 23.5986 58.3818 23.7024 57.8898 23.9071C57.4129 24.1041 56.9822 24.3999 56.6257 24.7755C56.2574 25.1669 55.97 25.6283 55.7802 26.133C55.5657 26.7059 55.4603 27.3146 55.4697 27.927C55.4697 28.0749 55.477 28.2432 55.4916 28.4309C55.5064 28.6226 55.5308 28.8133 55.5649 29.0024C55.5988 29.1957 55.641 29.3816 55.6895 29.5573C55.7336 29.7231 55.7979 29.8828 55.881 30.0326L60.5573 23.7657Z" fill="#57CC99"/>
<path id="Vector_12" d="M67.236 21.1089C67.2302 20.2564 67.4006 19.412 67.7361 18.6297C68.3861 17.1032 69.5913 15.8865 71.1034 15.2304C71.8775 14.892 72.713 14.72 73.5565 14.7255H83.2306V18.9857H73.5565C73.2791 18.983 73.0039 19.0362 72.7471 19.1421C72.4903 19.248 72.2569 19.4046 72.0608 19.6026C71.8646 19.8007 71.7095 20.0362 71.6046 20.2955C71.4997 20.5547 71.447 20.8325 71.4497 21.1126C71.4479 21.4003 71.5031 21.6854 71.6118 21.9513C71.7153 22.2053 71.8675 22.4361 72.0598 22.6304C72.2521 22.8247 72.4806 22.9786 72.7321 23.0832C72.9933 23.1928 73.2737 23.2481 73.5565 23.246H77.7757C78.6218 23.2408 79.46 23.4101 80.2389 23.7435C81.759 24.3877 82.968 25.6083 83.6062 27.1428C83.9315 27.9292 84.099 28.773 84.099 29.6252C84.099 30.4775 83.9315 31.3213 83.6062 32.1077C83.2878 32.8642 82.8285 33.5521 82.2533 34.1338C81.674 34.7166 80.99 35.1826 80.238 35.507C79.4603 35.8454 78.6216 36.0173 77.7748 36.0119H68.4085V31.7517H77.7748C78.062 31.7698 78.3499 31.7284 78.6206 31.6299C78.8914 31.5315 79.1392 31.3781 79.349 31.1792C79.5587 30.9803 79.7259 30.7401 79.8402 30.4735C79.9544 30.2069 80.0134 29.9194 80.0134 29.6289C80.0134 29.3384 79.9544 29.051 79.8402 28.7844C79.7259 28.5178 79.5587 28.2776 79.349 28.0787C79.1392 27.8798 78.8914 27.7264 78.6206 27.6279C78.3499 27.5295 78.062 27.4881 77.7748 27.5062H73.5565C72.7118 27.5125 71.8751 27.3408 71.0998 27.0022C69.5851 26.3461 68.3791 25.126 67.7325 23.5955C67.3985 22.8102 67.2295 21.9635 67.236 21.1089Z" fill="#22577A"/>
<path id="Vector_13" d="M100.199 23.2755L97.2577 26.2624C97.1175 25.8587 96.914 25.4803 96.6549 25.1417C96.4111 24.8205 96.1212 24.5378 95.7948 24.3029C95.4779 24.0765 95.1281 23.9011 94.7579 23.7832C94.3869 23.6648 94.0001 23.6046 93.611 23.6048C93.0754 23.6018 92.5457 23.7186 92.0602 23.9469C91.5767 24.1729 91.1457 24.499 90.7952 24.904C90.4278 25.3339 90.1424 25.8286 89.9533 26.3632C89.7417 26.9635 89.6372 27.5969 89.6446 28.234C89.6412 28.7692 89.7462 29.2994 89.9533 29.7921C90.1529 30.2676 90.4398 30.7005 90.7988 31.0683C91.1599 31.4372 91.5899 31.7301 92.0638 31.9301C92.9153 32.2868 93.862 32.339 94.7469 32.0781C95.1073 31.9703 95.4513 31.8129 95.7691 31.6102C96.0883 31.4078 96.3757 31.1585 96.622 30.8704C96.8721 30.5785 97.0777 30.2506 97.232 29.8976L100.173 32.8817C99.8053 33.4123 99.3747 33.8958 98.8909 34.3215C98.4103 34.7439 97.8821 35.1076 97.3172 35.4053C96.7535 35.7022 96.1562 35.9288 95.5383 36.0803C94.9086 36.2349 94.2627 36.3122 93.6147 36.3106C92.5415 36.3172 91.4783 36.1026 90.4901 35.6799C88.5609 34.8634 87.0217 33.3218 86.1976 31.3808C85.7739 30.3882 85.5587 29.3176 85.5656 28.2367C85.5561 27.0673 85.7707 25.907 86.1976 24.8199C86.5972 23.7962 87.1832 22.8571 87.9253 22.0512C88.6502 21.2683 89.5191 20.6354 90.4837 20.1879C91.4631 19.732 92.5298 19.499 93.6083 19.5054C94.2609 19.5048 94.9109 19.5897 95.542 19.7579C96.8162 20.0964 97.9847 20.7553 98.9386 21.673C99.4305 22.1454 99.8547 22.6848 100.199 23.2755Z" fill="#22577A"/>
<path id="Vector_14" d="M106.167 36.0119H102.155V13.7906H106.167V20.8121C106.611 20.4643 107.114 20.2002 107.652 20.0325C108.157 19.8797 108.682 19.8022 109.209 19.8023C110.149 19.7956 111.079 19.9845 111.943 20.3571C112.777 20.7154 113.534 21.2346 114.171 21.8857C114.808 22.5409 115.317 23.3114 115.671 24.1568C116.04 25.032 116.227 25.9743 116.22 26.9255V36.0101H112.177V26.9273H112.206C112.208 26.5219 112.128 26.1204 111.971 25.7474C111.665 25.0165 111.091 24.4338 110.369 24.1217C110.002 23.9626 109.606 23.8817 109.207 23.884C108.798 23.8817 108.393 23.9625 108.016 24.1217C107.286 24.4271 106.705 25.0114 106.4 25.7474C106.242 26.1203 106.162 26.5219 106.164 26.9273L106.167 36.0119Z" fill="#22577A"/>
<path id="Vector_15" d="M134.297 27.927C134.307 29.064 134.092 30.1917 133.665 31.244C133.266 32.2331 132.682 33.1352 131.945 33.9007C131.215 34.6505 130.349 35.2506 129.394 35.6679C128.403 36.0938 127.338 36.3133 126.262 36.3133C125.185 36.3133 124.12 36.0938 123.13 35.6679C121.18 34.8199 119.64 33.2305 118.843 31.244C118.416 30.1917 118.201 29.064 118.211 27.927C118.2 26.7775 118.414 25.6371 118.843 24.572C119.241 23.5785 119.828 22.6734 120.571 21.9079C121.303 21.1606 122.172 20.5639 123.13 20.1509C124.117 19.7229 125.18 19.5057 126.254 19.5128C127.33 19.5048 128.396 19.709 129.394 20.1139C130.35 20.5024 131.218 21.0832 131.945 21.8209C132.686 22.5834 133.271 23.4863 133.665 24.4777C134.086 25.5072 134.297 26.657 134.297 27.927ZM130.258 27.927C130.267 27.3204 130.159 26.7179 129.942 26.1524C129.745 25.6459 129.453 25.1826 129.082 24.7875C128.723 24.409 128.29 24.1107 127.81 23.9118C126.815 23.5048 125.702 23.5048 124.707 23.9118C124.229 24.1095 123.798 24.408 123.443 24.7875C123.076 25.1826 122.789 25.6462 122.598 26.1524C122.385 26.719 122.28 27.3211 122.289 27.927C122.283 28.5103 122.388 29.0894 122.598 29.6331C122.791 30.1386 123.078 30.6021 123.443 30.9989C123.8 31.3852 124.23 31.6955 124.707 31.9116C125.194 32.1351 125.724 32.2493 126.259 32.2464C126.791 32.2494 127.319 32.1434 127.81 31.9347C128.288 31.7318 128.721 31.4336 129.082 31.0581C129.455 30.6649 129.748 30.201 129.942 29.6932C130.158 29.1302 130.265 28.5307 130.258 27.927Z" fill="#22577A"/>
<path id="Vector_16" d="M151.736 27.927C151.746 29.0641 151.53 30.1917 151.103 31.244C150.705 32.2333 150.121 33.1354 149.383 33.9007C148.654 34.6507 147.787 35.2508 146.832 35.6679C145.842 36.0938 144.776 36.3133 143.7 36.3133C142.624 36.3133 141.558 36.0938 140.568 35.6679C138.618 34.8206 137.078 33.2308 136.282 31.244C135.855 30.1917 135.64 29.064 135.65 27.927C135.639 26.7775 135.854 25.6371 136.282 24.572C136.68 23.5787 137.267 22.6737 138.01 21.9079C138.742 21.1606 139.611 20.5639 140.568 20.1509C141.555 19.7232 142.619 19.5059 143.693 19.5128C144.768 19.5048 145.834 19.709 146.832 20.1139C147.788 20.5023 148.656 21.0831 149.383 21.8209C150.125 22.5832 150.709 23.4862 151.103 24.4777C151.536 25.5744 151.751 26.7464 151.736 27.927ZM147.692 27.927C147.701 27.3204 147.593 26.7179 147.376 26.1524C147.179 25.6456 146.887 25.1821 146.516 24.7875C146.157 24.4092 145.724 24.1109 145.244 23.9118C144.25 23.5048 143.137 23.5048 142.142 23.9118C141.663 24.1097 141.232 24.4082 140.877 24.7875C140.51 25.1828 140.223 25.6464 140.031 26.1524C139.819 26.7192 139.715 27.3211 139.723 27.927C139.718 28.5103 139.822 29.0893 140.031 29.6331C140.225 30.1384 140.512 30.6019 140.877 30.9989C141.234 31.385 141.664 31.6953 142.142 31.9116C142.629 32.1351 143.158 32.2493 143.693 32.2464C144.225 32.2493 144.753 32.1433 145.244 31.9347C145.722 31.7315 146.155 31.4334 146.516 31.0581C146.89 30.6654 147.182 30.2013 147.376 29.6932C147.592 29.1302 147.699 28.5307 147.692 27.927Z" fill="#22577A"/>
<path id="Vector_17" d="M158 36.0119H153.956V13.7906H158V36.0119Z" fill="#22577A"/>
</g>
<defs>
<clipPath id="clip0_31_669">
<rect width="158" height="51" fill="white"/>
</clipPath>
</defs>
</svg>
